<svg width="27" height="28" viewBox="0 0 27 28" fill="none" xmlns="http://www.w3.org/2000/svg">
<g clip-path="url(#clip0_129_378)">
<path d="M26.3952 18.388V9.42494C26.3952 7.6857 25.4615 6.07994 23.9391 5.20824L16.1125 0.728773C14.5943 -0.138758 12.7228 -0.138758 11.2046 0.728773L3.37794 5.20824C1.85972 6.07577 0.921875 7.6857 0.921875 9.42494V18.388C0.921875 20.1273 1.85552 21.733 3.37794 22.6047L11.2046 27.0842C12.7228 27.9517 14.5943 27.9517 16.1125 27.0842L23.9391 22.6047C25.4573 21.733 26.3952 20.1273 26.3952 18.388Z" fill="#2596BE"/>
<path d="M19.6885 9.07812H8.31348C7.58859 9.07812 7.00098 9.63776 7.00098 10.3281V17.8281C7.00098 18.5185 7.58859 19.0781 8.31348 19.0781H19.6885C20.4134 19.0781 21.001 18.5185 21.001 17.8281V10.3281C21.001 9.63776 20.4134 9.07812 19.6885 9.07812ZM19.6885 10.3281V11.3908C19.0754 11.8662 18.0979 12.6056 16.0084 14.1639C15.5479 14.5089 14.6357 15.3377 14.001 15.328C13.3664 15.3378 12.4539 14.5088 11.9936 14.1639C9.90434 12.6059 8.92666 11.8663 8.31348 11.3908V10.3281H19.6885ZM8.31348 17.8281V12.9947C8.94003 13.47 9.82857 14.137 11.1829 15.147C11.7805 15.595 12.8272 16.5841 14.001 16.5781C15.169 16.5841 16.2024 15.6094 16.8188 15.1472C18.1731 14.1372 19.0619 13.4701 19.6885 12.9948V17.8281H8.31348Z" fill="black"/>
</g>
<defs>
<clipPath id="clip0_129_378">
<rect width="27" height="28" fill="white"/>
</clipPath>
</defs>
</svg>
