<svg width="27" height="28" viewBox="0 0 27 28" fill="none" xmlns="http://www.w3.org/2000/svg">
<g clip-path="url(#clip0_129_386)">
<path d="M26.3952 18.388V9.42494C26.3952 7.6857 25.4615 6.07994 23.9391 5.20824L16.1125 0.728773C14.5943 -0.138758 12.7228 -0.138758 11.2046 0.728773L3.37794 5.20824C1.85972 6.07577 0.921875 7.6857 0.921875 9.42494V18.388C0.921875 20.1273 1.85552 21.733 3.37794 22.6047L11.2046 27.0842C12.7228 27.9517 14.5943 27.9517 16.1125 27.0842L23.9391 22.6047C25.4573 21.733 26.3952 20.1273 26.3952 18.388Z" fill="#2596BE"/>
<path fill-rule="evenodd" clip-rule="evenodd" d="M18.2614 16.9779C17.9236 16.572 17.375 15.984 16.9054 15.9283C16.6196 15.8944 16.2913 16.1203 15.9677 16.3334C15.9045 16.3635 15.4168 16.6406 15.3576 16.6571C15.045 16.7422 14.3781 16.767 13.9747 16.4162C13.5864 16.0773 12.9723 15.4501 12.4767 14.8756C12.0031 14.2838 11.5066 13.5723 11.2525 13.1356C10.9873 12.683 11.1783 12.0845 11.3424 11.8209C11.3724 11.7735 11.7355 11.4173 11.8168 11.3345L11.8286 11.3481C12.1294 11.1071 12.4443 10.8624 12.4798 10.5974C12.5382 10.1561 12.0654 9.51388 11.7276 9.10729C11.3898 8.69994 10.8665 7.9869 10.1538 8.08779C9.88541 8.12544 9.65414 8.21504 9.42604 8.34379L9.41972 8.33702C9.40693 8.3461 9.3943 8.35539 9.38184 8.36488L9.36211 8.37466L9.36447 8.37768C9.23345 8.47405 8.85933 8.7406 8.8167 8.77674C8.35418 9.16903 7.65802 10.0929 8.19632 11.7547C8.5957 12.9895 9.44735 14.4397 10.6076 15.9064L10.6013 15.9117C10.6581 15.9825 10.7165 16.0465 10.7757 16.115C10.831 16.185 10.8854 16.2543 10.9423 16.3236L10.9502 16.3183C12.1815 17.7331 13.4727 18.864 14.6511 19.5311C16.2376 20.4286 17.3655 20.0243 17.8865 19.7028C17.9354 19.6719 18.3079 19.3956 18.4342 19.3045L18.4374 19.3075C18.4421 19.303 18.4453 19.297 18.4516 19.2924C18.463 19.2843 18.4743 19.276 18.4855 19.2676L18.4808 19.2616C18.6718 19.0854 18.8249 18.8971 18.9307 18.66C19.2077 18.0358 18.5992 17.3852 18.2614 16.9779Z" fill="black"/>
</g>
<defs>
<clipPath id="clip0_129_386">
<rect width="27" height="28" fill="white"/>
</clipPath>
</defs>
</svg>
