<svg width="27" height="28" viewBox="0 0 27 28" fill="none" xmlns="http://www.w3.org/2000/svg">
<g clip-path="url(#clip0_129_394)">
<path d="M26.3952 18.388V9.42494C26.3952 7.6857 25.4615 6.07994 23.9391 5.20824L16.1125 0.728773C14.5943 -0.138758 12.7228 -0.138758 11.2046 0.728773L3.37794 5.20824C1.85972 6.07577 0.921875 7.6857 0.921875 9.42494V18.388C0.921875 20.1273 1.85552 21.733 3.37794 22.6047L11.2046 27.0842C12.7228 27.9517 14.5943 27.9517 16.1125 27.0842L23.9391 22.6047C25.4573 21.733 26.3952 20.1273 26.3952 18.388Z" fill="#2596BE"/>
<path d="M14.001 6.07812C9.58978 6.07812 6.00098 9.66693 6.00098 14.0781C6.00098 18.4893 9.58978 22.0781 14.001 22.0781C18.4122 22.0781 22.001 18.4893 22.001 14.0781C22.001 9.66693 18.4122 6.07812 14.001 6.07812ZM20.3458 13.2781H18.1346C18.0359 11.5271 17.546 9.8205 16.701 8.28373C17.6803 8.74137 18.5281 9.43924 19.1653 10.3125C19.8026 11.1857 20.2086 12.2058 20.3458 13.2781ZM14.425 7.69973C15.253 8.79093 16.3666 10.7237 16.5266 13.2781H11.625C11.7362 11.2013 12.4202 9.25573 13.5858 7.69893C13.7234 7.69093 13.861 7.67813 14.001 7.67813C14.1442 7.67813 14.2842 7.69093 14.425 7.69973ZM11.3514 8.25974C10.5642 9.77254 10.1098 11.4877 10.025 13.2781H7.65618C7.79439 12.1964 8.20628 11.1678 8.85289 10.2897C9.4995 9.41151 10.3594 8.71285 11.3514 8.25974ZM7.65618 14.8781H10.0354C10.1442 16.7813 10.5674 18.4605 11.2802 19.8621C10.3059 19.4029 9.46316 18.7055 8.82974 17.8343C8.19633 16.9632 7.79271 15.9465 7.65618 14.8781ZM13.561 20.4565C12.4402 19.0981 11.7786 17.1949 11.6338 14.8781H16.5242C16.3578 17.0965 15.6306 19.0349 14.4418 20.4557C14.2962 20.4653 14.1506 20.4781 14.001 20.4781C13.8522 20.4781 13.7074 20.4653 13.561 20.4565ZM16.7698 19.8389C17.5338 18.4037 18.0002 16.7181 18.1226 14.8781H20.345C20.21 15.9375 19.8121 16.9464 19.1877 17.8128C18.5633 18.6792 17.7321 19.3757 16.7698 19.8389Z" fill="black"/>
</g>
<defs>
<clipPath id="clip0_129_394">
<rect width="27" height="28" fill="white"/>
</clipPath>
</defs>
</svg>
