<svg width="27" height="27" viewBox="0 0 27 27" fill="none" xmlns="http://www.w3.org/2000/svg">
<path d="M20.9138 6.62618C19.5301 5.98493 18.0563 5.51243 16.5038 5.24243C16.3126 5.57993 16.0876 6.04118 15.9413 6.41243C14.2988 6.16493 12.6676 6.16493 11.0589 6.41243C10.9014 6.04118 10.6764 5.57993 10.4851 5.24243C8.93261 5.51243 7.45886 5.98493 6.07511 6.62618C3.28511 10.8337 2.53136 14.94 2.90261 18.9787C4.75886 20.3625 6.54761 21.195 8.31386 21.7462C8.75261 21.15 9.13511 20.5087 9.47261 19.845C8.83136 19.6087 8.22386 19.305 7.65011 18.9562C7.80761 18.8437 7.95386 18.72 8.10011 18.6075C11.6213 20.25 15.4351 20.25 18.9113 18.6075C19.0576 18.7312 19.2038 18.8437 19.3613 18.9562C18.7876 19.305 18.1688 19.5975 17.5388 19.845C17.8763 20.5087 18.2588 21.15 18.6976 21.7462C20.4638 21.195 22.2638 20.3625 24.1088 18.9787C24.5476 14.2875 23.3551 10.2262 20.9363 6.62618H20.9138ZM9.94511 16.5037C8.88761 16.5037 8.02136 15.525 8.02136 14.3212C8.02136 13.1175 8.86511 12.1387 9.94511 12.1387C11.0251 12.1387 11.8801 13.1175 11.8688 14.3212C11.8688 15.5137 11.0251 16.5037 9.94511 16.5037ZM17.0438 16.5037C15.9863 16.5037 15.1201 15.525 15.1201 14.3212C15.1201 13.1175 15.9638 12.1387 17.0438 12.1387C18.1238 12.1387 18.9788 13.1175 18.9676 14.3212C18.9676 15.5137 18.1238 16.5037 17.0438 16.5037Z" fill="#0B556F"/>
</svg>
