<svg width="23" height="24" viewBox="0 0 23 24" fill="none" xmlns="http://www.w3.org/2000/svg">
<g clip-path="url(#clip0_129_301)">
<path d="M15.744 15.1222C14.6108 15.048 13.7198 14.1105 13.7198 12.9645C13.7198 12.9262 13.7205 12.888 13.7228 12.8497V12.855C13.7205 12.819 13.719 12.777 13.719 12.7342C13.719 11.5905 14.6115 10.656 15.738 10.5877H15.744C16.8758 10.6492 17.7698 11.5815 17.7698 12.723C17.7698 12.7695 17.7683 12.8152 17.7653 12.861V12.855C17.7675 12.8925 17.769 12.9367 17.769 12.981C17.769 14.1232 16.8758 15.057 15.7493 15.1215H15.7433L15.744 15.1222ZM8.26953 15.1222C7.13628 15.048 6.24528 14.1105 6.24528 12.9645C6.24528 12.9262 6.24603 12.888 6.24828 12.8497V12.855C6.24603 12.819 6.24453 12.777 6.24453 12.7342C6.24453 11.5905 7.13703 10.656 8.26353 10.5877H8.26953C9.40128 10.6492 10.2953 11.5815 10.2953 12.723C10.2953 12.7695 10.2938 12.8152 10.2908 12.861V12.855C10.293 12.891 10.2945 12.933 10.2945 12.9757C10.2945 14.1195 9.40203 15.054 8.27553 15.1222H8.26953ZM19.7948 4.84874C18.4725 4.22474 16.9365 3.73124 15.3285 3.44549L15.2168 3.42899C15.213 3.42824 15.2085 3.42749 15.204 3.42749C15.1778 3.42749 15.1553 3.44174 15.1433 3.46274C14.9678 3.77099 14.7773 4.15574 14.6055 4.55024L14.5733 4.63349C13.8008 4.50974 12.9098 4.43924 12.0023 4.43924C11.0948 4.43924 10.2038 4.50974 9.33453 4.64549L9.43128 4.63274C9.22878 4.16024 9.03528 3.77624 8.82153 3.40424L8.85228 3.46199C8.83953 3.44024 8.81628 3.42674 8.79003 3.42674C8.78628 3.42674 8.78179 3.42674 8.77804 3.42749C7.05828 3.72974 5.52228 4.22249 4.08678 4.89524L4.20003 4.84724C4.18728 4.85249 4.17678 4.86149 4.17003 4.87274C2.02953 7.90349 0.748535 11.6745 0.748535 15.7447C0.748535 16.425 0.784535 17.0962 0.854285 17.7577L0.847535 17.6752C0.849785 17.697 0.861035 17.715 0.876785 17.7277C2.48179 18.9285 4.34778 19.896 6.36154 20.5312L6.49353 20.5672C6.49953 20.5695 6.50703 20.5702 6.51453 20.5702C6.53853 20.5702 6.55953 20.559 6.57228 20.5417C6.97353 20.0017 7.35528 19.3897 7.68603 18.7477L7.72128 18.6727C7.72578 18.6637 7.72878 18.6525 7.72878 18.6405C7.72878 18.6097 7.70928 18.5842 7.68228 18.5737H7.68153C6.99753 18.3097 6.41928 18.0285 5.86878 17.706L5.92653 17.7375C5.90478 17.7247 5.89053 17.7015 5.89053 17.6752C5.89053 17.652 5.90178 17.631 5.91903 17.6182C6.03678 17.5297 6.15528 17.4382 6.26779 17.3452C6.27978 17.3355 6.29554 17.3295 6.31204 17.3295C6.32254 17.3295 6.33228 17.3317 6.34054 17.3355H6.33978C7.99578 18.1312 9.93978 18.5962 11.9918 18.5962C14.0438 18.5962 15.9885 18.1312 17.724 17.301L17.6438 17.3355C17.6528 17.331 17.6625 17.3287 17.6738 17.3287C17.6903 17.3287 17.706 17.3347 17.718 17.3445C17.8305 17.4375 17.9483 17.5305 18.0675 17.6182C18.0848 17.6317 18.096 17.6527 18.096 17.676C18.096 17.7022 18.0818 17.7247 18.0615 17.7375C17.5658 18.0337 16.9875 18.3142 16.3853 18.546L16.3065 18.573C16.2795 18.5835 16.26 18.6097 16.26 18.6397C16.26 18.6517 16.263 18.663 16.2683 18.6727C16.644 19.3927 17.025 20.0032 17.4465 20.583L17.4165 20.5402C17.4293 20.5582 17.451 20.5702 17.4743 20.5702C17.4818 20.5702 17.4893 20.5687 17.496 20.5672C19.6448 19.8982 21.5138 18.9307 23.1698 17.6932L23.121 17.7285C23.1375 17.7165 23.148 17.6977 23.1503 17.6767C23.2155 17.0887 23.2523 16.4062 23.2523 15.7155C23.2523 11.6542 21.9683 7.89299 19.785 4.81499L19.824 4.87349C19.818 4.86149 19.8075 4.85174 19.7955 4.84649L19.7948 4.84874Z" fill="#808080"/>
</g>
<defs>
<clipPath id="clip0_129_301">
<rect width="23" height="24" fill="white"/>
</clipPath>
</defs>
</svg>
