<svg width="21" height="21" viewBox="0 0 21 21" fill="none" xmlns="http://www.w3.org/2000/svg">
<g clip-path="url(#clip0_208_104)">
<path fill-rule="evenodd" clip-rule="evenodd" d="M21 21H16.8V13.651C16.8 11.635 15.9107 10.5103 14.3157 10.5103C12.5801 10.5103 11.55 11.6823 11.55 13.651V21H7.35V7.35H11.55V8.88501C11.55 8.88501 12.8677 6.57275 15.8371 6.57275C18.8076 6.57275 21 8.38541 21 12.136V21ZM2.5641 5.16694C1.14765 5.16694 0 4.00991 0 2.58296C0 1.15706 1.14765 0 2.5641 0C3.9795 0 5.12715 1.15706 5.12715 2.58296C5.1282 4.00991 3.9795 5.16694 2.5641 5.16694ZM0 21H5.25V7.35H0V21Z" fill="#0B556F"/>
</g>
<defs>
<clipPath id="clip0_208_104">
<rect width="21" height="21" fill="white"/>
</clipPath>
</defs>
</svg>
