<svg width="23" height="24" viewBox="0 0 23 24" fill="none" xmlns="http://www.w3.org/2000/svg">
<path d="M11.75 7.50781C9.25 7.50781 7.25781 9.53906 7.25781 12C7.25781 14.5 9.25 16.4922 11.75 16.4922C14.2109 16.4922 16.2422 14.5 16.2422 12C16.2422 9.53906 14.2109 7.50781 11.75 7.50781ZM11.75 14.9297C10.1484 14.9297 8.82031 13.6406 8.82031 12C8.82031 10.3984 10.1094 9.10938 11.75 9.10938C13.3516 9.10938 14.6406 10.3984 14.6406 12C14.6406 13.6406 13.3516 14.9297 11.75 14.9297ZM17.4531 7.35156C17.4531 6.76562 16.9844 6.29688 16.3984 6.29688C15.8125 6.29688 15.3438 6.76562 15.3438 7.35156C15.3438 7.9375 15.8125 8.40625 16.3984 8.40625C16.9844 8.40625 17.4531 7.9375 17.4531 7.35156ZM20.4219 8.40625C20.3438 7 20.0312 5.75 19.0156 4.73438C18 3.71875 16.75 3.40625 15.3438 3.32812C13.8984 3.25 9.5625 3.25 8.11719 3.32812C6.71094 3.40625 5.5 3.71875 4.44531 4.73438C3.42969 5.75 3.11719 7 3.03906 8.40625C2.96094 9.85156 2.96094 14.1875 3.03906 15.6328C3.11719 17.0391 3.42969 18.25 4.44531 19.3047C5.5 20.3203 6.71094 20.6328 8.11719 20.7109C9.5625 20.7891 13.8984 20.7891 15.3438 20.7109C16.75 20.6328 18 20.3203 19.0156 19.3047C20.0312 18.25 20.3438 17.0391 20.4219 15.6328C20.5 14.1875 20.5 9.85156 20.4219 8.40625ZM18.5469 17.1562C18.2734 17.9375 17.6484 18.5234 16.9062 18.8359C15.7344 19.3047 13 19.1875 11.75 19.1875C10.4609 19.1875 7.72656 19.3047 6.59375 18.8359C5.8125 18.5234 5.22656 17.9375 4.91406 17.1562C4.44531 16.0234 4.5625 13.2891 4.5625 12C4.5625 10.75 4.44531 8.01562 4.91406 6.84375C5.22656 6.10156 5.8125 5.51562 6.59375 5.20312C7.72656 4.73438 10.4609 4.85156 11.75 4.85156C13 4.85156 15.7344 4.73438 16.9062 5.20312C17.6484 5.47656 18.2344 6.10156 18.5469 6.84375C19.0156 8.01562 18.8984 10.75 18.8984 12C18.8984 13.2891 19.0156 16.0234 18.5469 17.1562Z" fill="#808080"/>
</svg>
