<svg width="23" height="24" viewBox="0 0 23 24" fill="none" xmlns="http://www.w3.org/2000/svg">
<g clip-path="url(#clip0_129_312)">
<path d="M6.40625 21V9.32031H2.77344V21H6.40625ZM4.57031 7.75781C5.74219 7.75781 6.67969 6.78125 6.67969 5.60938C6.67969 4.47656 5.74219 3.53906 4.57031 3.53906C3.4375 3.53906 2.5 4.47656 2.5 5.60938C2.5 6.78125 3.4375 7.75781 4.57031 7.75781ZM19.9609 21H20V14.5938C20 11.4687 19.2969 9.04688 15.625 9.04688C13.8672 9.04688 12.6953 10.0234 12.1875 10.9219H12.1484V9.32031H8.67188V21H12.3047V15.2188C12.3047 13.6953 12.5781 12.25 14.4531 12.25C16.3281 12.25 16.3672 13.9688 16.3672 15.3359V21H19.9609Z" fill="#808080"/>
</g>
<defs>
<clipPath id="clip0_129_312">
<rect width="18" height="18" fill="white" transform="translate(2.5 3)"/>
</clipPath>
</defs>
</svg>
