<svg width="198" height="49" viewBox="0 0 198 49" fill="none" xmlns="http://www.w3.org/2000/svg">
<path d="M9.74 9.3C10.5533 9.47333 11.2067 9.88 11.7 10.52C12.1933 11.1467 12.44 11.8667 12.44 12.68C12.44 13.8533 12.0267 14.7867 11.2 15.48C10.3867 16.16 9.24667 16.5 7.78 16.5H1.24V2.46H7.56C8.98667 2.46 10.1 2.78667 10.9 3.44C11.7133 4.09333 12.12 4.98 12.12 6.1C12.12 6.92667 11.9 7.61333 11.46 8.16C11.0333 8.70667 10.46 9.08667 9.74 9.3ZM4.66 8.14H6.9C7.46 8.14 7.88667 8.02 8.18 7.78C8.48667 7.52667 8.64 7.16 8.64 6.68C8.64 6.2 8.48667 5.83333 8.18 5.58C7.88667 5.32667 7.46 5.2 6.9 5.2H4.66V8.14ZM7.18 13.74C7.75333 13.74 8.19333 13.6133 8.5 13.36C8.82 13.0933 8.98 12.7133 8.98 12.22C8.98 11.7267 8.81333 11.34 8.48 11.06C8.16 10.78 7.71333 10.64 7.14 10.64H4.66V13.74H7.18ZM19.5036 16.66C18.4103 16.66 17.4236 16.4267 16.5436 15.96C15.6769 15.4933 14.9903 14.8267 14.4836 13.96C13.9903 13.0933 13.7436 12.08 13.7436 10.92C13.7436 9.77333 13.9969 8.76667 14.5036 7.9C15.0103 7.02 15.7036 6.34667 16.5836 5.88C17.4636 5.41333 18.4503 5.18 19.5436 5.18C20.6369 5.18 21.6236 5.41333 22.5036 5.88C23.3836 6.34667 24.0769 7.02 24.5836 7.9C25.0903 8.76667 25.3436 9.77333 25.3436 10.92C25.3436 12.0667 25.0836 13.08 24.5636 13.96C24.0569 14.8267 23.3569 15.4933 22.4636 15.96C21.5836 16.4267 20.5969 16.66 19.5036 16.66ZM19.5036 13.7C20.1569 13.7 20.7103 13.46 21.1636 12.98C21.6303 12.5 21.8636 11.8133 21.8636 10.92C21.8636 10.0267 21.6369 9.34 21.1836 8.86C20.7436 8.38 20.1969 8.14 19.5436 8.14C18.8769 8.14 18.3236 8.38 17.8836 8.86C17.4436 9.32667 17.2236 10.0133 17.2236 10.92C17.2236 11.8133 17.4369 12.5 17.8636 12.98C18.3036 13.46 18.8503 13.7 19.5036 13.7ZM31.698 16.66C30.7246 16.66 29.858 16.4933 29.098 16.16C28.338 15.8267 27.738 15.3733 27.298 14.8C26.858 14.2133 26.6113 13.56 26.558 12.84H29.938C29.978 13.2267 30.158 13.54 30.478 13.78C30.798 14.02 31.1913 14.14 31.658 14.14C32.0846 14.14 32.4113 14.06 32.638 13.9C32.878 13.7267 32.998 13.5067 32.998 13.24C32.998 12.92 32.8313 12.6867 32.498 12.54C32.1646 12.38 31.6246 12.2067 30.878 12.02C30.078 11.8333 29.4113 11.64 28.878 11.44C28.3446 11.2267 27.8846 10.9 27.498 10.46C27.1113 10.0067 26.918 9.4 26.918 8.64C26.918 8 27.0913 7.42 27.438 6.9C27.798 6.36667 28.318 5.94667 28.998 5.64C29.6913 5.33333 30.5113 5.18 31.458 5.18C32.858 5.18 33.958 5.52667 34.758 6.22C35.5713 6.91333 36.038 7.83333 36.158 8.98H32.998C32.9446 8.59333 32.7713 8.28667 32.478 8.06C32.198 7.83333 31.8246 7.72 31.358 7.72C30.958 7.72 30.6513 7.8 30.438 7.96C30.2246 8.10667 30.118 8.31333 30.118 8.58C30.118 8.9 30.2846 9.14 30.618 9.3C30.9646 9.46 31.498 9.62 32.218 9.78C33.0446 9.99333 33.718 10.2067 34.238 10.42C34.758 10.62 35.2113 10.9533 35.598 11.42C35.998 11.8733 36.2046 12.4867 36.218 13.26C36.218 13.9133 36.0313 14.5 35.658 15.02C35.298 15.5267 34.7713 15.9267 34.078 16.22C33.398 16.5133 32.6046 16.66 31.698 16.66ZM44.5303 13.6V16.5H42.7903C41.5503 16.5 40.5836 16.2 39.8903 15.6C39.197 14.9867 38.8503 13.9933 38.8503 12.62V8.18H37.4903V5.34H38.8503V2.62H42.2703V5.34H44.5103V8.18H42.2703V12.66C42.2703 12.9933 42.3503 13.2333 42.5103 13.38C42.6703 13.5267 42.937 13.6 43.3103 13.6H44.5303ZM51.5153 16.66C50.422 16.66 49.4353 16.4267 48.5553 15.96C47.6886 15.4933 47.002 14.8267 46.4953 13.96C46.002 13.0933 45.7553 12.08 45.7553 10.92C45.7553 9.77333 46.0086 8.76667 46.5153 7.9C47.022 7.02 47.7153 6.34667 48.5953 5.88C49.4753 5.41333 50.462 5.18 51.5553 5.18C52.6486 5.18 53.6353 5.41333 54.5153 5.88C55.3953 6.34667 56.0886 7.02 56.5953 7.9C57.102 8.76667 57.3553 9.77333 57.3553 10.92C57.3553 12.0667 57.0953 13.08 56.5753 13.96C56.0686 14.8267 55.3686 15.4933 54.4753 15.96C53.5953 16.4267 52.6086 16.66 51.5153 16.66ZM51.5153 13.7C52.1686 13.7 52.722 13.46 53.1753 12.98C53.642 12.5 53.8753 11.8133 53.8753 10.92C53.8753 10.0267 53.6486 9.34 53.1953 8.86C52.7553 8.38 52.2086 8.14 51.5553 8.14C50.8886 8.14 50.3353 8.38 49.8953 8.86C49.4553 9.32667 49.2353 10.0133 49.2353 10.92C49.2353 11.8133 49.4486 12.5 49.8753 12.98C50.3153 13.46 50.862 13.7 51.5153 13.7ZM65.9697 5.22C67.2764 5.22 68.3164 5.64667 69.0897 6.5C69.8764 7.34 70.2697 8.5 70.2697 9.98V16.5H66.8697V10.44C66.8697 9.69333 66.6764 9.11333 66.2897 8.7C65.903 8.28667 65.383 8.08 64.7297 8.08C64.0764 8.08 63.5564 8.28667 63.1697 8.7C62.783 9.11333 62.5897 9.69333 62.5897 10.44V16.5H59.1697V5.34H62.5897V6.82C62.9364 6.32667 63.403 5.94 63.9897 5.66C64.5764 5.36667 65.2364 5.22 65.9697 5.22ZM80.3045 2.46V16.5H76.8845V2.46H80.3045ZM89.583 5.22C90.8896 5.22 91.9296 5.64667 92.703 6.5C93.4896 7.34 93.883 8.5 93.883 9.98V16.5H90.483V10.44C90.483 9.69333 90.2896 9.11333 89.903 8.7C89.5163 8.28667 88.9963 8.08 88.343 8.08C87.6896 8.08 87.1696 8.28667 86.783 8.7C86.3963 9.11333 86.203 9.69333 86.203 10.44V16.5H82.783V5.34H86.203V6.82C86.5496 6.32667 87.0163 5.94 87.603 5.66C88.1896 5.36667 88.8496 5.22 89.583 5.22ZM103.06 5.22C104.366 5.22 105.406 5.64667 106.18 6.5C106.966 7.34 107.36 8.5 107.36 9.98V16.5H103.96V10.44C103.96 9.69333 103.766 9.11333 103.38 8.7C102.993 8.28667 102.473 8.08 101.82 8.08C101.166 8.08 100.646 8.28667 100.26 8.7C99.8729 9.11333 99.6795 9.69333 99.6795 10.44V16.5H96.2595V5.34H99.6795V6.82C100.026 6.32667 100.493 5.94 101.08 5.66C101.666 5.36667 102.326 5.22 103.06 5.22ZM114.816 16.66C113.723 16.66 112.736 16.4267 111.856 15.96C110.989 15.4933 110.303 14.8267 109.796 13.96C109.303 13.0933 109.056 12.08 109.056 10.92C109.056 9.77333 109.309 8.76667 109.816 7.9C110.323 7.02 111.016 6.34667 111.896 5.88C112.776 5.41333 113.763 5.18 114.856 5.18C115.949 5.18 116.936 5.41333 117.816 5.88C118.696 6.34667 119.389 7.02 119.896 7.9C120.403 8.76667 120.656 9.77333 120.656 10.92C120.656 12.0667 120.396 13.08 119.876 13.96C119.369 14.8267 118.669 15.4933 117.776 15.96C116.896 16.4267 115.909 16.66 114.816 16.66ZM114.816 13.7C115.469 13.7 116.023 13.46 116.476 12.98C116.943 12.5 117.176 11.8133 117.176 10.92C117.176 10.0267 116.949 9.34 116.496 8.86C116.056 8.38 115.509 8.14 114.856 8.14C114.189 8.14 113.636 8.38 113.196 8.86C112.756 9.32667 112.536 10.0133 112.536 10.92C112.536 11.8133 112.749 12.5 113.176 12.98C113.616 13.46 114.163 13.7 114.816 13.7ZM127.49 13.3L129.91 5.34H133.55L129.59 16.5H125.37L121.41 5.34H125.07L127.49 13.3ZM134.31 10.9C134.31 9.75333 134.523 8.74667 134.95 7.88C135.39 7.01333 135.983 6.34667 136.73 5.88C137.477 5.41333 138.31 5.18 139.23 5.18C140.017 5.18 140.703 5.34 141.29 5.66C141.89 5.98 142.35 6.4 142.67 6.92V5.34H146.09V16.5H142.67V14.92C142.337 15.44 141.87 15.86 141.27 16.18C140.683 16.5 139.997 16.66 139.21 16.66C138.303 16.66 137.477 16.4267 136.73 15.96C135.983 15.48 135.39 14.8067 134.95 13.94C134.523 13.06 134.31 12.0467 134.31 10.9ZM142.67 10.92C142.67 10.0667 142.43 9.39333 141.95 8.9C141.483 8.40667 140.91 8.16 140.23 8.16C139.55 8.16 138.97 8.40667 138.49 8.9C138.023 9.38 137.79 10.0467 137.79 10.9C137.79 11.7533 138.023 12.4333 138.49 12.94C138.97 13.4333 139.55 13.68 140.23 13.68C140.91 13.68 141.483 13.4333 141.95 12.94C142.43 12.4467 142.67 11.7733 142.67 10.92ZM154.784 13.6V16.5H153.044C151.804 16.5 150.838 16.2 150.144 15.6C149.451 14.9867 149.104 13.9933 149.104 12.62V8.18H147.744V5.34H149.104V2.62H152.524V5.34H154.764V8.18H152.524V12.66C152.524 12.9933 152.604 13.2333 152.764 13.38C152.924 13.5267 153.191 13.6 153.564 13.6H154.784ZM158.409 4.18C157.809 4.18 157.316 4.00667 156.929 3.66C156.556 3.3 156.369 2.86 156.369 2.34C156.369 1.80667 156.556 1.36667 156.929 1.02C157.316 0.659999 157.809 0.479999 158.409 0.479999C158.996 0.479999 159.476 0.659999 159.849 1.02C160.236 1.36667 160.429 1.80667 160.429 2.34C160.429 2.86 160.236 3.3 159.849 3.66C159.476 4.00667 158.996 4.18 158.409 4.18ZM160.109 5.34V16.5H156.689V5.34H160.109ZM167.668 16.66C166.574 16.66 165.588 16.4267 164.708 15.96C163.841 15.4933 163.154 14.8267 162.648 13.96C162.154 13.0933 161.908 12.08 161.908 10.92C161.908 9.77333 162.161 8.76667 162.668 7.9C163.174 7.02 163.868 6.34667 164.748 5.88C165.628 5.41333 166.614 5.18 167.708 5.18C168.801 5.18 169.788 5.41333 170.668 5.88C171.548 6.34667 172.241 7.02 172.748 7.9C173.254 8.76667 173.508 9.77333 173.508 10.92C173.508 12.0667 173.248 13.08 172.728 13.96C172.221 14.8267 171.521 15.4933 170.628 15.96C169.748 16.4267 168.761 16.66 167.668 16.66ZM167.668 13.7C168.321 13.7 168.874 13.46 169.328 12.98C169.794 12.5 170.028 11.8133 170.028 10.92C170.028 10.0267 169.801 9.34 169.348 8.86C168.908 8.38 168.361 8.14 167.708 8.14C167.041 8.14 166.488 8.38 166.048 8.86C165.608 9.32667 165.388 10.0133 165.388 10.92C165.388 11.8133 165.601 12.5 166.028 12.98C166.468 13.46 167.014 13.7 167.668 13.7ZM182.122 5.22C183.429 5.22 184.469 5.64667 185.242 6.5C186.029 7.34 186.422 8.5 186.422 9.98V16.5H183.022V10.44C183.022 9.69333 182.829 9.11333 182.442 8.7C182.055 8.28667 181.535 8.08 180.882 8.08C180.229 8.08 179.709 8.28667 179.322 8.7C178.935 9.11333 178.742 9.69333 178.742 10.44V16.5H175.322V5.34H178.742V6.82C179.089 6.32667 179.555 5.94 180.142 5.66C180.729 5.36667 181.389 5.22 182.122 5.22ZM193.339 16.66C192.365 16.66 191.499 16.4933 190.739 16.16C189.979 15.8267 189.379 15.3733 188.939 14.8C188.499 14.2133 188.252 13.56 188.199 12.84H191.579C191.619 13.2267 191.799 13.54 192.119 13.78C192.439 14.02 192.832 14.14 193.299 14.14C193.725 14.14 194.052 14.06 194.279 13.9C194.519 13.7267 194.639 13.5067 194.639 13.24C194.639 12.92 194.472 12.6867 194.139 12.54C193.805 12.38 193.265 12.2067 192.519 12.02C191.719 11.8333 191.052 11.64 190.519 11.44C189.985 11.2267 189.525 10.9 189.139 10.46C188.752 10.0067 188.559 9.4 188.559 8.64C188.559 8 188.732 7.42 189.079 6.9C189.439 6.36667 189.959 5.94667 190.639 5.64C191.332 5.33333 192.152 5.18 193.099 5.18C194.499 5.18 195.599 5.52667 196.399 6.22C197.212 6.91333 197.679 7.83333 197.799 8.98H194.639C194.585 8.59333 194.412 8.28667 194.119 8.06C193.839 7.83333 193.465 7.72 192.999 7.72C192.599 7.72 192.292 7.8 192.079 7.96C191.865 8.10667 191.759 8.31333 191.759 8.58C191.759 8.9 191.925 9.14 192.259 9.3C192.605 9.46 193.139 9.62 193.859 9.78C194.685 9.99333 195.359 10.2067 195.879 10.42C196.399 10.62 196.852 10.9533 197.239 11.42C197.639 11.8733 197.845 12.4867 197.859 13.26C197.859 13.9133 197.672 14.5 197.299 15.02C196.939 15.5267 196.412 15.9267 195.719 16.22C195.039 16.5133 194.245 16.66 193.339 16.66ZM0.66 36.46C0.66 35.0733 0.96 33.84 1.56 32.76C2.16 31.6667 2.99333 30.82 4.06 30.22C5.14 29.6067 6.36 29.3 7.72 29.3C9.38667 29.3 10.8133 29.74 12 30.62C13.1867 31.5 13.98 32.7 14.38 34.22H10.62C10.34 33.6333 9.94 33.1867 9.42 32.88C8.91333 32.5733 8.33333 32.42 7.68 32.42C6.62667 32.42 5.77333 32.7867 5.12 33.52C4.46667 34.2533 4.14 35.2333 4.14 36.46C4.14 37.6867 4.46667 38.6667 5.12 39.4C5.77333 40.1333 6.62667 40.5 7.68 40.5C8.33333 40.5 8.91333 40.3467 9.42 40.04C9.94 39.7333 10.34 39.2867 10.62 38.7H14.38C13.98 40.22 13.1867 41.42 12 42.3C10.8133 43.1667 9.38667 43.6 7.72 43.6C6.36 43.6 5.14 43.3 4.06 42.7C2.99333 42.0867 2.16 41.24 1.56 40.16C0.96 39.08 0.66 37.8467 0.66 36.46ZM21.5544 43.66C20.461 43.66 19.4744 43.4267 18.5944 42.96C17.7277 42.4933 17.041 41.8267 16.5344 40.96C16.041 40.0933 15.7944 39.08 15.7944 37.92C15.7944 36.7733 16.0477 35.7667 16.5544 34.9C17.061 34.02 17.7544 33.3467 18.6344 32.88C19.5144 32.4133 20.501 32.18 21.5944 32.18C22.6877 32.18 23.6744 32.4133 24.5544 32.88C25.4344 33.3467 26.1277 34.02 26.6344 34.9C27.141 35.7667 27.3944 36.7733 27.3944 37.92C27.3944 39.0667 27.1344 40.08 26.6144 40.96C26.1077 41.8267 25.4077 42.4933 24.5144 42.96C23.6344 43.4267 22.6477 43.66 21.5544 43.66ZM21.5544 40.7C22.2077 40.7 22.761 40.46 23.2144 39.98C23.681 39.5 23.9144 38.8133 23.9144 37.92C23.9144 37.0267 23.6877 36.34 23.2344 35.86C22.7944 35.38 22.2477 35.14 21.5944 35.14C20.9277 35.14 20.3744 35.38 19.9344 35.86C19.4944 36.3267 19.2744 37.0133 19.2744 37.92C19.2744 38.8133 19.4877 39.5 19.9144 39.98C20.3544 40.46 20.901 40.7 21.5544 40.7ZM32.6288 34.2C33.0288 33.5867 33.5288 33.1067 34.1288 32.76C34.7288 32.4 35.3954 32.22 36.1288 32.22V35.84H35.1888C34.3354 35.84 33.6954 36.0267 33.2688 36.4C32.8421 36.76 32.6288 37.4 32.6288 38.32V43.5H29.2088V32.34H32.6288V34.2ZM41.1834 33.92C41.5168 33.4 41.9768 32.98 42.5634 32.66C43.1501 32.34 43.8368 32.18 44.6234 32.18C45.5434 32.18 46.3768 32.4133 47.1234 32.88C47.8701 33.3467 48.4568 34.0133 48.8834 34.88C49.3234 35.7467 49.5434 36.7533 49.5434 37.9C49.5434 39.0467 49.3234 40.06 48.8834 40.94C48.4568 41.8067 47.8701 42.48 47.1234 42.96C46.3768 43.4267 45.5434 43.66 44.6234 43.66C43.8501 43.66 43.1634 43.5 42.5634 43.18C41.9768 42.86 41.5168 42.4467 41.1834 41.94V48.82H37.7634V32.34H41.1834V33.92ZM46.0634 37.9C46.0634 37.0467 45.8234 36.38 45.3434 35.9C44.8768 35.4067 44.2968 35.16 43.6034 35.16C42.9234 35.16 42.3434 35.4067 41.8634 35.9C41.3968 36.3933 41.1634 37.0667 41.1634 37.92C41.1634 38.7733 41.3968 39.4467 41.8634 39.94C42.3434 40.4333 42.9234 40.68 43.6034 40.68C44.2834 40.68 44.8634 40.4333 45.3434 39.94C45.8234 39.4333 46.0634 38.7533 46.0634 37.9ZM56.4177 43.66C55.3243 43.66 54.3377 43.4267 53.4577 42.96C52.591 42.4933 51.9043 41.8267 51.3977 40.96C50.9043 40.0933 50.6577 39.08 50.6577 37.92C50.6577 36.7733 50.911 35.7667 51.4177 34.9C51.9243 34.02 52.6177 33.3467 53.4977 32.88C54.3777 32.4133 55.3643 32.18 56.4577 32.18C57.551 32.18 58.5377 32.4133 59.4177 32.88C60.2977 33.3467 60.991 34.02 61.4977 34.9C62.0043 35.7667 62.2577 36.7733 62.2577 37.92C62.2577 39.0667 61.9977 40.08 61.4777 40.96C60.971 41.8267 60.271 42.4933 59.3777 42.96C58.4977 43.4267 57.511 43.66 56.4177 43.66ZM56.4177 40.7C57.071 40.7 57.6243 40.46 58.0777 39.98C58.5443 39.5 58.7777 38.8133 58.7777 37.92C58.7777 37.0267 58.551 36.34 58.0977 35.86C57.6577 35.38 57.111 35.14 56.4577 35.14C55.791 35.14 55.2377 35.38 54.7977 35.86C54.3577 36.3267 54.1377 37.0133 54.1377 37.92C54.1377 38.8133 54.351 39.5 54.7777 39.98C55.2177 40.46 55.7643 40.7 56.4177 40.7ZM67.492 34.2C67.892 33.5867 68.392 33.1067 68.992 32.76C69.592 32.4 70.2587 32.22 70.992 32.22V35.84H70.052C69.1987 35.84 68.5587 36.0267 68.132 36.4C67.7054 36.76 67.492 37.4 67.492 38.32V43.5H64.072V32.34H67.492V34.2ZM71.9467 37.9C71.9467 36.7533 72.1601 35.7467 72.5867 34.88C73.0267 34.0133 73.6201 33.3467 74.3667 32.88C75.1134 32.4133 75.9467 32.18 76.8667 32.18C77.6534 32.18 78.3401 32.34 78.9267 32.66C79.5267 32.98 79.9867 33.4 80.3067 33.92V32.34H83.7267V43.5H80.3067V41.92C79.9734 42.44 79.5067 42.86 78.9067 43.18C78.3201 43.5 77.6334 43.66 76.8467 43.66C75.9401 43.66 75.1134 43.4267 74.3667 42.96C73.6201 42.48 73.0267 41.8067 72.5867 40.94C72.1601 40.06 71.9467 39.0467 71.9467 37.9ZM80.3067 37.92C80.3067 37.0667 80.0667 36.3933 79.5867 35.9C79.1201 35.4067 78.5467 35.16 77.8667 35.16C77.1867 35.16 76.6067 35.4067 76.1267 35.9C75.6601 36.38 75.4267 37.0467 75.4267 37.9C75.4267 38.7533 75.6601 39.4333 76.1267 39.94C76.6067 40.4333 77.1867 40.68 77.8667 40.68C78.5467 40.68 79.1201 40.4333 79.5867 39.94C80.0667 39.4467 80.3067 38.7733 80.3067 37.92ZM92.4209 40.6V43.5H90.6809C89.4409 43.5 88.4743 43.2 87.7809 42.6C87.0876 41.9867 86.7409 40.9933 86.7409 39.62V35.18H85.3809V32.34H86.7409V29.62H90.1609V32.34H92.4009V35.18H90.1609V39.66C90.1609 39.9933 90.2409 40.2333 90.4009 40.38C90.5609 40.5267 90.8276 40.6 91.2009 40.6H92.4209ZM96.0459 31.18C95.4459 31.18 94.9526 31.0067 94.5659 30.66C94.1926 30.3 94.0059 29.86 94.0059 29.34C94.0059 28.8067 94.1926 28.3667 94.5659 28.02C94.9526 27.66 95.4459 27.48 96.0459 27.48C96.6326 27.48 97.1126 27.66 97.4859 28.02C97.8726 28.3667 98.0659 28.8067 98.0659 29.34C98.0659 29.86 97.8726 30.3 97.4859 30.66C97.1126 31.0067 96.6326 31.18 96.0459 31.18ZM97.7459 32.34V43.5H94.3259V32.34H97.7459ZM105.304 43.66C104.211 43.66 103.224 43.4267 102.344 42.96C101.478 42.4933 100.791 41.8267 100.284 40.96C99.791 40.0933 99.5444 39.08 99.5444 37.92C99.5444 36.7733 99.7977 35.7667 100.304 34.9C100.811 34.02 101.504 33.3467 102.384 32.88C103.264 32.4133 104.251 32.18 105.344 32.18C106.438 32.18 107.424 32.4133 108.304 32.88C109.184 33.3467 109.878 34.02 110.384 34.9C110.891 35.7667 111.144 36.7733 111.144 37.92C111.144 39.0667 110.884 40.08 110.364 40.96C109.858 41.8267 109.158 42.4933 108.264 42.96C107.384 43.4267 106.398 43.66 105.304 43.66ZM105.304 40.7C105.958 40.7 106.511 40.46 106.964 39.98C107.431 39.5 107.664 38.8133 107.664 37.92C107.664 37.0267 107.438 36.34 106.984 35.86C106.544 35.38 105.998 35.14 105.344 35.14C104.678 35.14 104.124 35.38 103.684 35.86C103.244 36.3267 103.024 37.0133 103.024 37.92C103.024 38.8133 103.238 39.5 103.664 39.98C104.104 40.46 104.651 40.7 105.304 40.7ZM119.759 32.22C121.065 32.22 122.105 32.6467 122.879 33.5C123.665 34.34 124.059 35.5 124.059 36.98V43.5H120.659V37.44C120.659 36.6933 120.465 36.1133 120.079 35.7C119.692 35.2867 119.172 35.08 118.519 35.08C117.865 35.08 117.345 35.2867 116.959 35.7C116.572 36.1133 116.379 36.6933 116.379 37.44V43.5H112.959V32.34H116.379V33.82C116.725 33.3267 117.192 32.94 117.779 32.66C118.365 32.3667 119.025 32.22 119.759 32.22Z" fill="white"/>
</svg>
