<svg width="23" height="23" viewBox="0 0 23 23" fill="none" xmlns="http://www.w3.org/2000/svg">
<path fill-rule="evenodd" clip-rule="evenodd" d="M6.70866 2.63538C5.16098 2.63538 3.76145 3.02219 2.74562 3.96545C1.72017 4.91767 1.19824 6.33172 1.19824 8.14579V14.8541C1.19824 16.6683 1.72017 18.0823 2.74562 19.0345C3.76145 19.9778 5.16098 20.3645 6.70866 20.3645H16.292C17.8397 20.3645 19.2393 19.9778 20.255 19.0345C21.2805 18.0823 21.8024 16.6683 21.8024 14.8541V8.14579C21.8024 6.33172 21.2805 4.91767 20.255 3.96545C19.2393 3.02219 17.8397 2.63538 16.292 2.63538H6.70866ZM18.4276 8.01383C18.7417 7.77112 18.7996 7.31973 18.5568 7.00563C18.3142 6.69151 17.8628 6.63364 17.5487 6.87636L12.2327 10.984C11.8013 11.3174 11.1992 11.3174 10.7678 10.984L5.4519 6.87636C5.13779 6.63364 4.6864 6.69151 4.44369 7.00563C4.20097 7.31973 4.25884 7.77112 4.57296 8.01383L9.88889 12.1215C10.838 12.8549 12.1625 12.8549 13.1117 12.1215L18.4276 8.01383Z" fill="#0B556F"/>
</svg>
