<svg width="38" height="29" viewBox="0 0 38 29" fill="none" xmlns="http://www.w3.org/2000/svg">
<g clip-path="url(#clip0_331_103)">
<g clip-path="url(#clip1_331_103)">
<g clip-path="url(#clip2_331_103)">
<path d="M34.035 2.70687C36.1752 4.98653 37.3242 7.54335 37.3242 11.688C37.3242 18.9812 32.219 25.5181 24.7949 28.75L22.9394 25.8785C29.869 22.1194 31.2237 17.2413 31.7639 14.1656C30.6481 14.7449 29.1874 14.947 27.7558 14.8137C24.0074 14.4657 21.0527 11.3796 21.0527 7.54335C21.0527 5.60905 21.8189 3.75397 23.1827 2.38624C24.5466 1.01848 26.3963 0.250099 28.3251 0.250099C29.3918 0.259464 30.4459 0.481459 31.4261 0.903259C32.4064 1.32503 33.2932 1.93815 34.035 2.70687ZM13.2566 2.70687C15.3968 4.98653 16.5459 7.54335 16.5459 11.688C16.5459 18.9812 11.4406 25.5181 4.01654 28.75L2.16098 25.8785C9.09059 22.1194 10.4454 17.2413 10.9856 14.1656C9.86979 14.7449 8.40907 14.947 6.97745 14.8137C3.22906 14.4657 0.27422 11.3796 0.27422 7.54335C0.27422 5.60905 1.04066 3.75397 2.40425 2.38624C3.76822 1.01848 5.618 0.250099 7.54677 0.250099C8.61342 0.259464 9.66755 0.481459 10.6478 0.903259C11.6281 1.32503 12.5149 1.93815 13.2566 2.70687Z" fill="#2596BE"/>
</g>
</g>
</g>
<defs>
<clipPath id="clip0_331_103">
<rect width="37.3274" height="28.5" fill="white" transform="matrix(-1 0 0 -1 37.3271 28.75)"/>
</clipPath>
<clipPath id="clip1_331_103">
<rect width="37.3274" height="28.5" fill="white" transform="matrix(-1 0 0 -1 37.3271 28.75)"/>
</clipPath>
<clipPath id="clip2_331_103">
<rect width="37.3214" height="28.5" fill="white" transform="matrix(-1 0 0 -1 37.3242 28.75)"/>
</clipPath>
</defs>
</svg>
