<svg width="37" height="29" viewBox="0 0 37 29" fill="none" xmlns="http://www.w3.org/2000/svg">
<g clip-path="url(#clip0_331_108)">
<g clip-path="url(#clip1_331_108)">
<path d="M3.26329 2.43532C1.14189 4.69498 0.00292969 7.22938 0.00292969 11.3377C0.00292969 18.5669 5.06338 25.0464 12.4224 28.25L14.2616 25.4037C7.39279 21.6776 6.04994 16.8422 5.51444 13.7935C6.62046 14.3677 8.06837 14.5681 9.48743 14.4359C13.2029 14.091 16.1317 11.032 16.1317 7.22938C16.1317 5.31204 15.3722 3.47324 14.0204 2.11751C12.6685 0.761742 10.835 0.000101089 8.9231 0.000101089C7.86581 0.00938225 6.82093 0.229431 5.84927 0.64753C4.87757 1.0656 3.99856 1.67334 3.26329 2.43532ZM23.8594 2.43532C21.738 4.69498 20.599 7.22938 20.599 11.3377C20.599 18.5669 25.6595 25.0464 33.0184 28.25L34.8577 25.4037C27.9889 21.6776 26.646 16.8422 26.1105 13.7935C27.2165 14.3677 28.6644 14.5681 30.0835 14.4359C33.799 14.091 36.7279 11.032 36.7279 7.22938C36.7279 5.31204 35.9682 3.47324 34.6166 2.11751C33.2646 0.761742 31.431 0.000101089 29.5192 0.000101089C28.4619 0.00938225 27.417 0.229431 26.4453 0.64753C25.4737 1.0656 24.5946 1.67334 23.8594 2.43532Z" fill="#2596BE"/>
</g>
</g>
<defs>
<clipPath id="clip0_331_108">
<rect width="37" height="28.25" fill="white" transform="matrix(1 0 0 -1 0 28.25)"/>
</clipPath>
<clipPath id="clip1_331_108">
<rect width="36.994" height="28.25" fill="white" transform="matrix(1 0 0 -1 0.00292969 28.25)"/>
</clipPath>
</defs>
</svg>
