<svg width="18" height="21" viewBox="0 0 18 21" fill="none" xmlns="http://www.w3.org/2000/svg">
<g clip-path="url(#clip0_331_62)">
<g clip-path="url(#clip1_331_62)">
<g clip-path="url(#clip2_331_62)">
<path d="M1.79105 9.53908H14.3927L10.5357 4.89334C10.3553 4.67574 10.2686 4.39521 10.2945 4.11345C10.3204 3.8317 10.4568 3.5718 10.6739 3.39094C10.8908 3.21008 11.1705 3.12306 11.4515 3.14904C11.7325 3.17502 11.9916 3.31186 12.172 3.52946L17.4847 9.92267C17.5204 9.97352 17.5523 10.0269 17.5803 10.0825C17.5803 10.1358 17.5803 10.1677 17.6547 10.221C17.7028 10.3432 17.7281 10.4732 17.729 10.6046C17.7281 10.736 17.7028 10.866 17.6547 10.9882C17.6547 11.0415 17.6547 11.0734 17.5803 11.1267C17.5523 11.1823 17.5204 11.2357 17.4847 11.2866L12.172 17.6798C12.0721 17.8001 11.947 17.8968 11.8056 17.9631C11.6642 18.0294 11.5099 18.0636 11.3539 18.0634C11.1056 18.0638 10.865 17.9771 10.6739 17.8183C10.5662 17.7288 10.4773 17.619 10.4121 17.495C10.3469 17.371 10.3068 17.2354 10.294 17.0958C10.2811 16.9562 10.2958 16.8156 10.3374 16.6817C10.3788 16.5479 10.4462 16.4236 10.5357 16.3159L14.3927 11.6701H1.79105C1.50925 11.6701 1.23899 11.5579 1.03972 11.3581C0.84046 11.1582 0.728516 10.8872 0.728516 10.6046C0.728516 10.322 0.84046 10.051 1.03972 9.85117C1.23899 9.65133 1.50925 9.53908 1.79105 9.53908Z" fill="#2596BE"/>
</g>
</g>
</g>
<defs>
<clipPath id="clip0_331_62">
<rect width="17" height="20" fill="white" transform="translate(0.729492 0.75)"/>
</clipPath>
<clipPath id="clip1_331_62">
<rect width="17" height="20" fill="white" transform="translate(0.729492 0.75)"/>
</clipPath>
<clipPath id="clip2_331_62">
<rect width="17" height="15.2105" fill="white" transform="translate(0.729492 3.14453)"/>
</clipPath>
</defs>
</svg>
