<svg width="23" height="24" viewBox="0 0 23 24" fill="none" xmlns="http://www.w3.org/2000/svg">
<g clip-path="url(#clip0_129_307)">
<path d="M19.4297 7.9375C20.2109 7.35156 20.9141 6.64844 21.4609 5.82812C20.7578 6.14062 19.9375 6.375 19.1172 6.45312C19.9766 5.94531 20.6016 5.16406 20.9141 4.1875C20.1328 4.65625 19.2344 5.00781 18.3359 5.20312C17.5547 4.38281 16.5 3.91406 15.3281 3.91406C13.0625 3.91406 11.2266 5.75 11.2266 8.01562C11.2266 8.32812 11.2656 8.64062 11.3438 8.95312C7.94531 8.75781 4.89844 7.11719 2.86719 4.65625C2.51562 5.24219 2.32031 5.94531 2.32031 6.72656C2.32031 8.13281 3.02344 9.38281 4.15625 10.125C3.49219 10.0859 2.82812 9.92969 2.28125 9.61719V9.65625C2.28125 11.6484 3.6875 13.2891 5.5625 13.6797C5.25 13.7578 4.85938 13.8359 4.50781 13.8359C4.23438 13.8359 4 13.7969 3.72656 13.7578C4.23438 15.3984 5.75781 16.5703 7.55469 16.6094C6.14844 17.7031 4.39062 18.3672 2.47656 18.3672C2.125 18.3672 1.8125 18.3281 1.5 18.2891C3.29688 19.4609 5.44531 20.125 7.78906 20.125C15.3281 20.125 19.4297 13.9141 19.4297 8.48438C19.4297 8.28906 19.4297 8.13281 19.4297 7.9375Z" fill="#808080"/>
</g>
<defs>
<clipPath id="clip0_129_307">
<rect width="20" height="17" fill="white" transform="translate(1.5 3.5)"/>
</clipPath>
</defs>
</svg>
