<svg width="23" height="24" viewBox="0 0 23 24" fill="none" xmlns="http://www.w3.org/2000/svg">
<g clip-path="url(#clip0_129_322)">
<path d="M21.9453 6.88281C21.7109 5.94531 20.9688 5.20312 20.0703 4.96875C18.3906 4.5 11.75 4.5 11.75 4.5C11.75 4.5 5.07031 4.5 3.39062 4.96875C2.49219 5.20312 1.75 5.94531 1.51562 6.88281C1.04688 8.52344 1.04688 12.0391 1.04688 12.0391C1.04688 12.0391 1.04688 15.5156 1.51562 17.1953C1.75 18.1328 2.49219 18.8359 3.39062 19.0703C5.07031 19.5 11.75 19.5 11.75 19.5C11.75 19.5 18.3906 19.5 20.0703 19.0703C20.9688 18.8359 21.7109 18.1328 21.9453 17.1953C22.4141 15.5156 22.4141 12.0391 22.4141 12.0391C22.4141 12.0391 22.4141 8.52344 21.9453 6.88281ZM9.5625 15.2031V8.875L15.1094 12.0391L9.5625 15.2031Z" fill="#808080"/>
</g>
<defs>
<clipPath id="clip0_129_322">
<rect width="22" height="15" fill="white" transform="translate(0.5 4.5)"/>
</clipPath>
</defs>
</svg>
